<svg id="Layer_1" height="512" viewBox="0 0 512 512" width="512" xmlns="http://www.w3.org/2000/svg" data-name="Layer 1"><path d="m5.009 5.008a16.991 16.991 0 0 0 -5.009 12.092v79.945a12.525 12.525 0 1 0 25.049 0v-54.284l112.7 112.7a12.525 12.525 0 0 0 17.713-17.712l-112.7-112.7h54.284a12.525 12.525 0 0 0 0-25.049h-79.946a16.98 16.98 0 0 0 -12.091 5.008z"/><path d="m506.992 506.991a16.991 16.991 0 0 1 -12.092 5.009h-79.945a12.525 12.525 0 1 1 0-25.049h54.284l-112.7-112.7a12.525 12.525 0 1 1 17.712-17.713l112.7 112.7v-54.284a12.525 12.525 0 0 1 25.049 0v79.946a16.98 16.98 0 0 1 -5.008 12.091z"/><path d="m5.008 506.991a16.991 16.991 0 0 0 12.092 5.009h79.945a12.525 12.525 0 1 0 0-25.049h-54.284l112.7-112.7a12.525 12.525 0 1 0 -17.712-17.713l-112.7 112.7v-54.284a12.525 12.525 0 0 0 -25.049 0v79.946a16.98 16.98 0 0 0 5.008 12.091z"/><path d="m506.991 5.008a16.991 16.991 0 0 1 5.009 12.092v79.945a12.525 12.525 0 1 1 -25.049 0v-54.284l-112.7 112.7a12.525 12.525 0 1 1 -17.713-17.712l112.7-112.7h-54.284a12.525 12.525 0 0 1 0-25.049h79.946a16.98 16.98 0 0 1 12.091 5.008z"/></svg>