<?xml version="1.0" encoding="iso-8859-1"?>
<!-- Generator: Adobe Illustrator 19.0.0, SVG Export Plug-In . SVG Version: 6.00 Build 0)  -->
<svg version="1.1" id="Capa_1" xmlns="http://www.w3.org/2000/svg" xmlns:xlink="http://www.w3.org/1999/xlink" x="0px" y="0px"
	 viewBox="0 0 511.999 511.999" style="enable-background:new 0 0 511.999 511.999;" xml:space="preserve">
<g>
	<g>
		<path d="M502.736,0H354.821c-5.116,0-9.264,4.148-9.264,9.264c0,5.116,4.148,9.264,9.264,9.264h40.733v80.167h-179.25V18.528
			H323.94c5.116,0,9.264-4.148,9.264-9.264c0-5.116-4.147-9.264-9.263-9.264H9.264C4.148,0,0,4.148,0,9.264v98.695v98.694v98.694
			v98.695v98.694c0,5.116,4.148,9.264,9.264,9.264h493.471c5.116,0,9.264-4.148,9.264-9.264V9.264C512,4.148,507.852,0,502.736,0z
			 M314.222,117.223h179.248v80.166H373.348c-5.116,0-9.264,4.148-9.264,9.264c0,5.116,4.148,9.264,9.264,9.264h22.206v80.166
			h-179.25v-80.166h126.163c5.116,0,9.264-4.148,9.264-9.264c0-5.116-4.148-9.264-9.264-9.264h-28.245V117.223z M493.471,314.61
			v80.167H314.222V314.61H493.471z M295.694,117.223v80.166H116.446v-80.166H295.694z M18.528,18.528h179.248v80.167H18.528V18.528z
			 M18.528,117.223h79.39v80.166h-79.39V117.223z M18.528,215.918h179.248v80.166H18.528V215.918z M18.528,314.61h79.39v80.167
			h-79.39V314.61z M197.776,493.471H18.528v-80.166h133.719c5.116,0,9.264-4.148,9.264-9.264c0-5.116-4.148-9.264-9.264-9.264
			h-35.801V314.61h179.248v80.167H183.127c-5.116,0-9.264,4.148-9.264,9.264c0,5.116,4.148,9.264,9.264,9.264h14.649V493.471z
			 M395.554,493.471h-179.25v-80.166h179.25V493.471z M493.472,493.472h-79.39v-80.166h79.39V493.472z M493.472,296.082h-79.39
			v-80.166h79.39V296.082z M493.472,98.695h-79.39V18.528h79.39V98.695z"/>
	</g>
</g>
<g>
</g>
<g>
</g>
<g>
</g>
<g>
</g>
<g>
</g>
<g>
</g>
<g>
</g>
<g>
</g>
<g>
</g>
<g>
</g>
<g>
</g>
<g>
</g>
<g>
</g>
<g>
</g>
<g>
</g>
</svg>
